Coordinates
version=1
nRows=10
nColumns=40
inDegrees=yes

Units are S.I. units (second, meters, Newtons, ...)
Angles are in degrees.

endheader
time	pelvis_tilt	pelvis_list	pelvis_rotation	pelvis_tx	pelvis_ty	pelvis_tz	hip_flexion_r	hip_adduction_r	hip_rotation_r	knee_angle_r	knee_angle_r_beta	ankle_angle_r	subtalar_angle_r	mtp_angle_r	hip_flexion_l	hip_adduction_l	hip_rotation_l	knee_angle_l	knee_angle_l_beta	ankle_angle_l	subtalar_angle_l	mtp_angle_l	lumbar_extension	lumbar_bending	lumbar_rotation	arm_flex_r	arm_add_r	arm_rot_r	elbow_flex_r	pro_sup_r	wrist_flex_r	wrist_dev_r	arm_flex_l	arm_add_l	arm_rot_l	elbow_flex_l	pro_sup_l	wrist_flex_l	wrist_dev_l
     44.80250000	     -6.89196850	     -5.37613635	     -6.91445238	      1.00901022	      0.92419811	      0.48716661	     20.12967014	      4.71748290	     -5.45250755	     19.03327547	     19.03327547	      6.81171018	      3.63743903	     -4.29230788	      3.48040772	    -11.51858821	    -11.59366300	     28.81835261	     28.81835261	     16.27856115	    -12.49040765	     -2.11737760	     -8.95275181	      8.18953354	      1.26914359	     -7.22609504	    -13.34670226	    -14.02684761	     29.38868445	     45.88898279	      0.00000000	      0.00000000	     38.88974365	    -21.34551575	    -13.53888308	     72.17673104	     48.36881851	      0.00000000	      0.00000000
     44.82228571	     -6.72930733	     -5.51706515	     -6.45839983	      1.01023563	      0.92467435	      0.49140923	     19.62215538	      5.03228506	     -5.62163142	     19.45464422	     19.45464422	      8.03580316	      3.30595099	     -2.10909845	      4.50229561	    -12.24302383	    -10.61192249	     31.45903631	     31.45903631	     13.23223962	    -14.72861645	     -6.67245316	     -9.05554517	      8.15888318	      1.22027677	     -6.02065226	    -13.69470828	    -13.04333577	     29.50162356	     45.86392344	      0.00000000	      0.00000000	     38.14711101	    -20.51469197	    -14.20054140	     70.83369171	     48.34322272	      0.00000000	      0.00000000
     44.84207143	     -6.58650748	     -5.64061146	     -5.97192518	      1.01122915	      0.92488972	      0.49544478	     19.05557684	      5.31752303	     -5.87414903	     19.62801001	     19.62801001	      8.48173448	      2.91453160	     -2.16869057	      6.01226346	    -12.99776805	     -9.54746912	     34.99907738	     34.99907738	     11.82567356	    -15.87078992	     -7.04527829	     -9.15727765	      8.10006029	      1.20063684	     -4.88482779	    -13.89960703	    -12.97586843	     29.93097776	     45.85579803	      0.00000000	      0.00000000	     36.97009833	    -19.93872938	    -13.97780541	     70.03047962	     48.29962150	      0.00000000	      0.00000000
     44.86185714	     -6.43477552	     -5.72017048	     -5.49135177	      1.01189268	      0.92483111	      0.49934126	     18.64367217	      5.58561149	     -5.91872743	     20.06076416	     20.06076416	      9.07150157	      2.16622691	     -2.12209695	      7.69922519	    -13.63606766	     -8.35034059	     38.72295702	     38.72295702	     10.15012175	    -17.14524344	     -7.28327094	     -9.23598568	      7.97771279	      1.02034807	     -3.40087579	    -14.04666913	    -12.77475878	     30.34977280	     45.84545458	      0.00000000	      0.00000000	     35.71944705	    -19.44250233	    -13.88617015	     68.54055168	     48.24864833	      0.00000000	      0.00000000
     44.88164286	     -6.11427067	     -5.91407248	     -4.97487963	      1.01245541	      0.92478349	      0.50299191	     18.01570078	      5.92228568	     -6.15909335	     20.43166240	     20.43166240	      9.61485180	      1.68641074	     -2.20064743	      9.35186748	    -14.36926728	     -7.17948317	     42.60800786	     42.60800786	      8.50622070	    -17.98515104	     -7.18506220	     -9.56862669	      7.95928515	      1.10874459	     -1.95845393	    -14.21535173	    -12.69094468	     30.80145250	     45.83600757	      0.00000000	      0.00000000	     34.39525147	    -18.64046932	    -13.64297506	     67.45368296	     48.19912069	      0.00000000	      0.00000000
     44.90142857	     -6.01409970	     -5.91533924	     -4.42894295	      1.01255009	      0.92413107	      0.50632902	     17.87278299	      6.13842929	     -5.91800709	     21.17055319	     21.17055319	     10.37482101	      0.38186796	     -1.72183167	     11.55679937	    -14.70548569	     -5.66139960	     46.82486933	     46.82486933	      7.84448297	    -18.41076798	     -4.04261514	     -9.49613900	      7.79184335	      0.72317246	     -0.10120759	    -14.28054555	    -12.15682489	     30.90243469	     45.82714103	      0.00000000	      0.00000000	     33.15715438	    -18.19345194	    -13.60349876	     64.25427355	     48.11622948	      0.00000000	      0.00000000
     44.92121429	     -5.87360870	     -6.09053798	     -3.85283011	      1.01252892	      0.92317087	      0.50944350	     17.65395077	      6.44349040	     -6.13034488	     21.85204947	     21.85204947	     11.06232454	     -0.31832565	     -1.81186872	     13.72814597	    -15.22234189	     -4.28814732	     50.81118641	     50.81118641	      6.59204605	    -18.78535299	     -2.61284690	     -9.52775826	      7.76289093	      0.69474356	      1.47167109	    -14.40299080	    -12.04376896	     31.45687196	     45.81418442	      0.00000000	      0.00000000	     31.49739294	    -17.38274745	    -13.26651709	     62.64066223	     48.04640769	      0.00000000	      0.00000000
     44.94100000	     -5.55457459	     -6.02026997	     -3.26103274	      1.01229718	      0.92232862	      0.51194556	     17.41953076	      6.49503320	     -5.98737855	     22.82417630	     22.82417630	     12.06932182	     -1.39608855	     -1.09431571	     15.94603667	    -14.94044637	     -2.39299874	     55.01587570	     55.01587570	      8.14612890	    -18.87444451	      6.56409467	     -9.68041388	      7.52558478	      0.73564053	      3.36288840	    -14.57533167	    -11.34717801	     31.70501367	     45.79806147	      0.00000000	      0.00000000	     30.55008772	    -16.50504567	    -12.64824620	     58.65508893	     47.90263688	      0.00000000	      0.00000000
     44.96078571	     -5.29804561	     -6.02721577	     -2.65152218	      1.01191516	      0.92109771	      0.51432830	     17.27980599	      6.63604322	     -5.89856078	     23.81105007	     23.81105007	     12.93595388	     -2.48755491	     -0.74467297	     18.02840838	    -14.85708261	     -0.92872307	     58.48105270	     58.48105270	      8.38898938	    -19.05791799	     11.33216827	     -9.77414611	      7.36487910	      0.60474275	      5.18261495	    -14.61447917	    -11.04450636	     32.78484163	     45.77050511	      0.00000000	      0.00000000	     28.93702888	    -15.80945903	    -11.93403709	     55.64167770	     47.76306062	      0.00000000	      0.00000000
     44.98057143	     -5.00049585	     -6.06316099	     -2.02295739	      1.01143222	      0.91944342	      0.51652625	     17.22261292	      6.78744812	     -5.84667073	     25.01708290	     25.01708290	     13.79564482	     -3.65459463	     -0.94269845	     19.90472883	    -14.90998524	      0.15400137	     61.31239035	     61.31239035	      7.94049791	    -19.22973299	     12.65531729	     -9.96217185	      7.21727945	      0.30746310	      7.19658777	    -14.58470540	    -11.01679007	     33.91363743	     45.74342603	      0.00000000	      0.00000000	     26.91565104	    -15.24208516	    -11.45724852	     53.39624450	     47.66820280	      0.00000000	      0.00000000
